<?xml version='1.0' encoding='iso-8859-1'?>
<svg version="1.1" xmlns="http://www.w3.org/2000/svg" viewBox="0 0 441.593 441.593" xmlns:xlink="http://www.w3.org/1999/xlink" enable-background="new 0 0 441.593 441.593">
  <path d="m431.092,420.593h-68.362v-252.371c0-38.56-15.618-70.969-45.166-93.726-18.369-14.147-41.196-23.745-66.16-28.058v-15.829c-2.84217e-14-16.878-13.731-30.609-30.608-30.609-16.879,0-30.61,13.731-30.61,30.609v15.83c-24.962,4.313-47.79,13.911-66.158,28.057-29.549,22.756-45.168,55.167-45.169,93.727v252.37h-68.359c-5.799,0-10.5,4.701-10.5,10.5s4.701,10.5 10.5,10.5h420.592c5.799,0 10.5-4.701 10.5-10.5s-4.701-10.5-10.5-10.5zm-219.906-389.984c0-5.299 4.312-9.609 9.61-9.609 5.298,0 9.607,4.311 9.607,9.609v13.487c-3.182-0.166-6.384-0.25-9.606-0.25-0.002,0 0.002,0-0.001,0-3.222,0-6.429,0.084-9.61,0.25v-13.487zm130.544,389.984h-241.871v-209.575h241.871v209.575zm-181.195-230.575v-29.234h120.522v29.234h-120.522zm181.195,0h-39.673v-39.734c0-5.799-4.701-10.5-10.5-10.5h-141.522c-5.799,0-10.5,4.701-10.5,10.5v39.734h-39.676v-21.796c0.001-63.202 49.642-95.779 101.618-102.19 0.32-0.024 0.636-0.062 0.948-0.114 12.241-1.433 24.495-1.435 36.736,0 0.313,0.053 0.632,0.091 0.954,0.115 51.975,6.412 101.614,38.989 101.614,102.191v21.794zm-198.343,166.786l44.735-63.266c3.349-4.734 9.9-5.858 14.636-2.511 4.734,3.348 5.858,9.9 2.511,14.635l-44.735,63.266c-2.046,2.894-5.289,4.439-8.582,4.439-2.096,0-4.212-0.625-6.054-1.928-4.734-3.348-5.858-9.9-2.511-14.635zm53.739-2.237h92.505c5.799,0 10.5,4.701 10.5,10.5s-4.701,10.5-10.5,10.5h-92.505c-5.799,0-10.5-4.701-10.5-10.5s4.701-10.5 10.5-10.5zm14.25-81.963c-3.348-4.735-2.224-11.288 2.511-14.636 4.737-3.347 11.288-2.224 14.636,2.511l45.416,64.226c3.348,4.735 2.224,11.288-2.511,14.636-1.842,1.302-3.958,1.928-6.054,1.928-3.293,0-6.536-1.545-8.582-4.438l-45.416-64.227z"/>
</svg>
